<svg xmlns="http://www.w3.org/2000/svg" xmlns:xlink="http://www.w3.org/1999/xlink" width="40" zoomAndPan="magnify" viewBox="0 0 30 30.000001" height="40" preserveAspectRatio="xMidYMid meet" version="1.0"><defs><clipPath id="8d621aceb4"><path d="M 6.289062 5.804688 L 15 5.804688 L 15 14 L 6.289062 14 Z M 6.289062 5.804688 " clip-rule="nonzero"/></clipPath><clipPath id="d1f81a23b7"><path d="M 15 5.804688 L 23.710938 5.804688 L 23.710938 14 L 15 14 Z M 15 5.804688 " clip-rule="nonzero"/></clipPath><clipPath id="8dd50854b0"><path d="M 6.289062 15 L 15 15 L 15 23.226562 L 6.289062 23.226562 Z M 6.289062 15 " clip-rule="nonzero"/></clipPath><clipPath id="fbeb6779ed"><path d="M 15 15 L 23.710938 15 L 23.710938 23.226562 L 15 23.226562 Z M 15 15 " clip-rule="nonzero"/></clipPath></defs><g clip-path="url(#8d621aceb4)"><path fill="#00adb5" d="M 12.566406 5.804688 L 7.820312 5.804688 C 6.980469 5.804688 6.289062 6.496094 6.289062 7.339844 L 6.289062 12.082031 C 6.289062 12.925781 6.980469 13.613281 7.820312 13.613281 L 12.566406 13.613281 C 13.410156 13.613281 14.097656 12.925781 14.097656 12.082031 L 14.097656 7.339844 C 14.097656 6.496094 13.410156 5.804688 12.566406 5.804688 Z M 12.566406 5.804688 " fill-opacity="1" fill-rule="nonzero"/></g><g clip-path="url(#d1f81a23b7)"><path fill="#00adb5" d="M 22.179688 5.804688 L 17.433594 5.804688 C 16.589844 5.804688 15.902344 6.496094 15.902344 7.339844 L 15.902344 12.082031 C 15.902344 12.925781 16.589844 13.613281 17.433594 13.613281 L 22.179688 13.613281 C 23.019531 13.613281 23.710938 12.925781 23.710938 12.082031 L 23.710938 7.339844 C 23.710938 6.496094 23.019531 5.804688 22.179688 5.804688 Z M 22.179688 5.804688 " fill-opacity="1" fill-rule="nonzero"/></g><g clip-path="url(#8dd50854b0)"><path fill="#00adb5" d="M 12.566406 15.417969 L 7.820312 15.417969 C 6.980469 15.417969 6.289062 16.109375 6.289062 16.949219 L 6.289062 21.695312 C 6.289062 22.535156 6.980469 23.226562 7.820312 23.226562 L 12.566406 23.226562 C 13.410156 23.226562 14.097656 22.535156 14.097656 21.695312 L 14.097656 16.949219 C 14.097656 16.109375 13.410156 15.417969 12.566406 15.417969 Z M 12.566406 15.417969 " fill-opacity="1" fill-rule="nonzero"/></g><g clip-path="url(#fbeb6779ed)"><path fill="#00adb5" d="M 22.179688 15.417969 L 17.433594 15.417969 C 16.589844 15.417969 15.902344 16.109375 15.902344 16.949219 L 15.902344 21.695312 C 15.902344 22.535156 16.589844 23.226562 17.433594 23.226562 L 22.179688 23.226562 C 23.019531 23.226562 23.710938 22.535156 23.710938 21.695312 L 23.710938 16.949219 C 23.710938 16.109375 23.019531 15.417969 22.179688 15.417969 Z M 22.179688 15.417969 " fill-opacity="1" fill-rule="nonzero"/></g></svg>